<svg xmlns="http://www.w3.org/2000/svg" width="37.359" height="37.359" viewBox="0 0 37.359 37.359">
  <g id="icons8_3D_Object" transform="translate(-4.961 -4.961)">
    <path id="Path_4" data-name="Path 4" d="M5.791,4.961a.642.642,0,0,0-.415.163l7.391,8.14H37.59L28.7,5.209a.759.759,0,0,0-.579-.248Zm-.83,2.161v21a.9.9,0,0,0,.163.5L11.6,36.59V14.428Zm8.3,7.8v23.25H30.7V21.731l2.825,2.821L38.172,29.2V14.922ZM32.359,25.716V39.832L35.6,36.59l2.406,5.731,2.321-.994L37.92,35.681h4.4Z" fill="#bdbdbd"/>
  </g>
</svg>
