<svg xmlns="http://www.w3.org/2000/svg" width="39.305" height="38.301" viewBox="0 0 39.305 38.301">
  <g id="icons8_Branding" transform="translate(-8.93 -5.953)">
    <path id="Path_1" data-name="Path 1" d="M9.938,5.953A1.007,1.007,0,0,0,8.93,6.961V41.23a3.031,3.031,0,0,0,3.024,3.024H36.142a3.031,3.031,0,0,0,3.024-3.024V33.1a9.256,9.256,0,0,0,6.655-3.969,13.739,13.739,0,0,0,2.413-7.842,5.475,5.475,0,0,0-1.226-3.7,5.241,5.241,0,0,0-4.032-1.56h-3.81V6.961a1.007,1.007,0,0,0-1.008-1.008Zm18.045,8.064c.187,1.135.012,5.036-3.937,5.036C24.046,19.053,23.685,14.68,27.983,14.017Zm11.183,4.028h3.81a3.111,3.111,0,0,1,2.524.889,3.459,3.459,0,0,1,.722,2.357,11.952,11.952,0,0,1-2.04,6.675,7.058,7.058,0,0,1-5.016,3.119Zm-15.12,2c2.516,0,2.318,2.211,3.226,4.449,1,2.834,2.822,3.171,2.822,5.945,0,3.6-3.024,4.727-6.048,4.727S18,34.039,18,30.443c0-2.774,1.83-3.111,2.826-5.945C21.732,22.26,21.53,20.05,24.046,20.05Z" transform="translate(0)" fill="#bdbdbd"/>
  </g>
</svg>
