<svg id="icons8_Facebook" xmlns="http://www.w3.org/2000/svg" width="24.929" height="24.929" viewBox="0 0 24.929 24.929">
  <path id="Path_17" data-name="Path 17" d="M25.93,3.969H6.937A2.966,2.966,0,0,0,3.969,6.937V25.93A2.968,2.968,0,0,0,6.937,28.9H25.93A2.969,2.969,0,0,0,28.9,25.93V6.937A2.968,2.968,0,0,0,25.93,3.969Zm-2.374,8.9H22.368c-1.271,0-1.781.3-1.781,1.187v1.781h2.968l-.594,2.968H20.588v8.9H17.62v-8.9H15.245V15.839H17.62V14.058c0-2.374,1.187-4.153,3.562-4.153a3.667,3.667,0,0,1,2.374.594Z" transform="translate(-3.969 -3.969)" fill="#9e9e9e"/>
</svg>
