<svg id="icons8_Twitter" xmlns="http://www.w3.org/2000/svg" width="29.749" height="24.175" viewBox="0 0 29.749 24.175">
  <path id="Path_18" data-name="Path 18" d="M29.69,8.435a12.264,12.264,0,0,1-3.508.963,6.12,6.12,0,0,0,2.685-3.377A12.219,12.219,0,0,1,24.99,7.5a6.107,6.107,0,0,0-10.4,5.567A17.332,17.332,0,0,1,2.012,6.689,6.116,6.116,0,0,0,3.9,14.841a6.086,6.086,0,0,1-2.767-.767v.077a6.113,6.113,0,0,0,4.894,5.988,6.149,6.149,0,0,1-1.606.213,5.814,5.814,0,0,1-1.15-.112,6.115,6.115,0,0,0,5.7,4.242A12.242,12.242,0,0,1,1.4,27.092a11.9,11.9,0,0,1-1.454-.087A17.248,17.248,0,0,0,9.3,29.749c11.227,0,17.367-9.3,17.367-17.364,0-.264-.007-.531-.016-.79A12.381,12.381,0,0,0,29.69,8.435Z" transform="translate(0.059 -5.574)" fill="#9e9e9e"/>
</svg>
