<svg id="icons8_LinkedIn" xmlns="http://www.w3.org/2000/svg" width="24.929" height="24.929" viewBox="0 0 24.929 24.929">
  <path id="Path_15" data-name="Path 15" d="M25.93,3.969H6.937A2.966,2.966,0,0,0,3.969,6.937V25.93A2.968,2.968,0,0,0,6.937,28.9H25.93A2.969,2.969,0,0,0,28.9,25.93V6.937A2.968,2.968,0,0,0,25.93,3.969Zm-14.247,9.5V24.743H8.124V13.464ZM8.124,10.183A1.58,1.58,0,0,1,9.9,8.718a1.6,1.6,0,0,1,1.779,1.465,1.577,1.577,0,0,1-1.779,1.5A1.6,1.6,0,0,1,8.124,10.183Zm16.619,14.56H21.181V18.807a2.134,2.134,0,0,0-2.078-2.4h-.047c-1.437,0-2.031,1.222-2.031,2.4v5.936H13.464V13.464h3.562v1.519a4.444,4.444,0,0,1,3.447-1.519c2.358,0,4.27,1.622,4.27,4.906Z" transform="translate(-3.969 -3.969)" fill="#9e9e9e"/>
</svg>
