<svg id="icons8_Instagram" xmlns="http://www.w3.org/2000/svg" width="26.117" height="26.117" viewBox="0 0 26.117 26.117">
  <path id="Path_16" data-name="Path 16" d="M10.691,2.977a7.721,7.721,0,0,0-7.715,7.715V21.376a7.723,7.723,0,0,0,7.715,7.717H21.376a7.725,7.725,0,0,0,7.717-7.717V10.691a7.723,7.723,0,0,0-7.717-7.715ZM23.157,7.726A1.187,1.187,0,1,1,21.97,8.913,1.189,1.189,0,0,1,23.157,7.726ZM16.034,9.506a6.529,6.529,0,1,1-6.527,6.527A6.533,6.533,0,0,1,16.034,9.506Zm0,1.185a5.343,5.343,0,1,0,5.343,5.343A5.35,5.35,0,0,0,16.034,10.691Z" transform="translate(-2.977 -2.977)" fill="#9e9e9e"/>
</svg>
