<svg xmlns="http://www.w3.org/2000/svg" width="36.348" height="41.301" viewBox="0 0 36.348 41.301">
  <g id="icons8_Mobile" transform="translate(-2.977)">
    <path id="Path_2" data-name="Path 2" d="M5.455,0A2.482,2.482,0,0,0,2.977,2.478v27.26a2.482,2.482,0,0,0,2.478,2.479H17.018V25.608H7.107V4.131H20.323V8.262h4.131V2.478A2.482,2.482,0,0,0,21.975,0ZM20.323,9.088a2.484,2.484,0,0,0-2.479,2.478v27.26A2.483,2.483,0,0,0,20.323,41.3H36.846a2.483,2.483,0,0,0,2.479-2.475V11.566a2.484,2.484,0,0,0-2.479-2.478Zm1.652,4.128H35.193V34.7H21.975ZM13.713,27.26A1.239,1.239,0,1,1,12.477,28.5,1.239,1.239,0,0,1,13.713,27.26Zm14.871,9.088a1.239,1.239,0,1,1-1.239,1.239A1.239,1.239,0,0,1,28.584,36.348Z" fill="#bdbdbd"/>
  </g>
</svg>
