<svg id="icons8_Phone" xmlns="http://www.w3.org/2000/svg" width="36.022" height="36.027" viewBox="0 0 36.022 36.027">
  <path id="Path_11" data-name="Path 11" d="M32.478,39h-.039c-6.154-.2-13.362-6.167-18.33-11.138S3.171,15.681,2.98,9.559c-.071-2.15,5.2-5.974,5.258-6.012a2.538,2.538,0,0,1,3.511.251c.422.583,4.42,6.641,4.855,7.331a2.888,2.888,0,0,1-.177,2.84c-.313.59-1.341,2.4-1.825,3.246a43.169,43.169,0,0,0,4.745,5.406A42.867,42.867,0,0,0,24.76,27.37c.845-.48,2.653-1.512,3.246-1.821a2.894,2.894,0,0,1,2.824-.187c.735.451,6.776,4.468,7.334,4.855a2.11,2.11,0,0,1,.828,1.547,3.054,3.054,0,0,1-.574,1.976C38.383,33.789,34.605,39,32.478,39Z" transform="translate(-2.98 -2.974)" fill="#9e9e9e"/>
</svg>
