<svg xmlns="http://www.w3.org/2000/svg" width="40.935" height="29.475" viewBox="0 0 40.935 29.475">
  <g id="icons8_Secured_Letter_1" transform="translate(0 0)">
    <path id="Path_13" data-name="Path 13" d="M0,6.945V9.221C2.466,11.368,16.612,23.7,17.731,24.676a3.957,3.957,0,0,0,5.474,0c1.164-1.012,16.132-14.062,17.731-15.455V6.945ZM0,11.4V31.942l12.382-9.774C8.369,18.677,2.643,13.7,0,11.4Zm40.935,0c-2.5,2.173-8.311,7.228-12.382,10.771l12.382,9.749Zm-27.3,11.87L0,34.015v2.4H40.935V33.989L27.3,23.267c-1.586,1.383-2.727,2.382-3.017,2.637a5.9,5.9,0,0,1-3.814,1.509,5.884,5.884,0,0,1-3.81-1.509C16.367,25.653,15.226,24.653,13.636,23.267Z" transform="translate(0 -6.945)" fill="#9e9e9e"/>
  </g>
</svg>
