<svg xmlns="http://www.w3.org/2000/svg" width="38.352" height="31.684" viewBox="0 0 38.352 31.684">
  <g id="icons8_Web" transform="translate(-1.984 -5.953)">
    <path id="Path_3" data-name="Path 3" d="M4.355,5.953a2.373,2.373,0,0,0-2.37,2.37v7.633H40.336V8.323a2.373,2.373,0,0,0-2.37-2.37ZM6.988,9.289A1.668,1.668,0,1,1,5.32,10.956,1.666,1.666,0,0,1,6.988,9.289Zm5,0a1.668,1.668,0,1,1-1.668,1.668A1.665,1.665,0,0,1,11.991,9.289Zm4.166,0H36.17v3.335H16.157ZM1.984,17.624V36.8a.831.831,0,0,0,.834.834H39.505a.83.83,0,0,0,.831-.834V17.624Zm5,3.336H23.662v4.169H6.988Zm20.844,0h7.5V32.634h-7.5Zm-20.844,7.5H23.662v4.169H6.988Z" fill="#bdbdbd"/>
  </g>
</svg>
